<svg width="257.7024841308594px" height="129.47999572753906px" xmlns="http://www.w3.org/2000/svg" viewBox="121.14875793457031 10.260002136230469 257.7024841308594 129.47999572753906" style="background: rgba(0, 0, 0, 0);" preserveAspectRatio="xMidYMid"><defs><filter id="editing-extrude-glow"><feFlood flood-color="#333333" result="flood-1"></feFlood><feMorphology operator="erode" radius="1" in="SourceAlpha" result="erode"></feMorphology><feComposite operator="in" in="flood-1" in2="erode" result="comp1"></feComposite><feConvolveMatrix order="2,2" divisor="1" in="comp1" result="convolve" kernelMatrix="0 0 1 1"></feConvolveMatrix><feOffset dx="-2" dy="0" in="convolve" result="extrude"></feOffset><feComposite operator="in" in="flood-1" in2="extrude" result="comp-extrude"></feComposite><feFlood flood-color="#000000" result="flood-2"></feFlood><feComposite operator="in" in="flood-2" in2="SourceAlpha" result="comp2"></feComposite><feMorphology operator="dilate" radius="1" in="comp2" result="dilate"></feMorphology><feOffset dx="-3" dy="0" in="dilate" result="offset"></feOffset><feGaussianBlur in="offset" stdDeviation="5.8" result="blur"></feGaussianBlur><feComponentTransfer in="blur" result="shadow"><feFuncA type="linear" slope="0.8" intercept="-0.2"></feFuncA></feComponentTransfer><feMerge><feMergeNode in="shadow"></feMergeNode><feMergeNode in="comp-extrude"></feMergeNode><feMergeNode in="SourceGraphic"></feMergeNode></feMerge></filter></defs><g filter="url(#editing-extrude-glow)"><g transform="translate(165.68062406778336, 88.3100004196167)"><path d="M21.25-19.14L21.25-19.14L22.14-19.33L22.14-19.33Q22.85-19.33 23.49-18.75L23.49-18.75L23.49-18.75Q24.13-18.18 24.13-17.86L24.13-17.86L24.13-17.86Q24.13-17.54 20.16-11.68L20.16-11.68L20.16-11.68Q16.19-5.82 16.19-3.52L16.19-3.52L16.19-3.52Q16.19-3.33 16.26-3.14L16.26-3.14L16.26-3.14Q16.58-1.66 17.66-1.66L17.66-1.66L17.66-1.66Q20.99-1.66 29.82-12.67L29.82-12.67L29.82-12.67Q30.02-12.93 30.27-12.93L30.27-12.93L30.27-12.93Q30.53-12.93 30.53-12.45L30.53-12.45L30.53-12.45Q30.53-11.97 29.95-11.20L29.95-11.20L29.95-11.20Q21.76-0.26 17.47-0.26L17.47-0.26L17.47-0.26Q16.90-0.26 16.38-0.45L16.38-0.45L16.38-0.45Q13.57-1.54 13.57-4.67L13.57-4.67L13.57-4.67Q13.57-5.76 13.82-6.85L13.82-6.85L9.86-3.01L9.86-3.01Q6.08 0.32 4.38 0.32L4.38 0.32L4.38 0.32Q2.69 0.32 1.15-0.77L1.15-0.77L1.15-0.77Q-0.58-2.05-0.58-4.16L-0.58-4.16L-0.58-4.16Q-0.58-8.83 5.95-15.33L5.95-15.33L5.95-15.33Q12.48-21.82 17.92-21.82L17.92-21.82L17.92-21.82Q20.03-21.82 20.74-20.35L20.74-20.35L20.74-20.35Q20.93-19.84 21.06-19.49L21.06-19.49L21.06-19.49Q21.18-19.14 21.25-19.14ZM2.11-3.39L2.11-3.39L2.11-3.39Q2.11-1.09 3.71-1.09L3.71-1.09L3.71-1.09Q7.42-1.09 13.82-9.22L13.82-9.22L20.61-18.56L20.61-18.56Q20.10-19.46 18.94-19.46L18.94-19.46L18.94-19.46Q15.04-19.46 8.58-13.41L8.58-13.41L8.58-13.41Q2.11-7.36 2.11-3.39ZM52.10-20.10L52.10-20.10L52.10-20.10Q52.10-20.48 52.48-20.48L52.48-20.48L52.48-20.48Q53.63-20.48 54.27-19.07L54.27-19.07L54.27-19.07Q55.04-17.86 55.04-14.85L55.04-14.85L55.04-14.85Q55.04-10.24 51.01-5.41L51.01-5.41L51.01-5.41Q46.98-0.58 42.30-0.58L42.30-0.58L42.30-0.58Q40.06-0.58 38.69-2.75L38.69-2.75L38.69-2.75Q37.31-4.93 37.31-7.23L37.31-7.23L37.31-7.23Q37.31-9.54 38.34-12.86L38.34-12.86L38.34-12.86Q36.48-11.01 32.90-6.50L32.90-6.50L32.90-6.50Q29.31-1.98 28.03 0.13L28.03 0.13L28.03 0.13Q27.39 0.13 26.27-0.58L26.27-0.58L26.27-0.58Q25.15-1.28 25.15-1.92L25.15-1.92L25.15-1.92Q25.15-3.46 29.06-12.06L29.06-12.06L29.06-12.06Q32.96-20.67 34.88-20.67L34.88-20.67L34.88-20.67Q35.58-20.67 36.16-20L36.16-20L36.16-20Q36.74-19.33 36.74-18.98L36.74-18.98L36.74-18.98Q36.74-18.62 33.25-12.38L33.25-12.38L33.25-12.38Q29.76-6.14 29.82-4.86L29.82-4.86L29.82-4.86Q35.90-12.22 36.29-12.67L36.29-12.67L36.29-12.67Q42.50-19.84 44.42-19.84L44.42-19.84L44.42-19.84Q45.12-19.84 45.79-19.23L45.79-19.23L45.79-19.23Q46.46-18.62 46.46-18.14L46.46-18.14L46.46-18.14Q46.46-17.66 44.67-15.30L44.67-15.30L44.67-15.30Q42.88-12.93 41.63-10.66L41.63-10.66L41.63-10.66Q40.38-8.38 40.38-6.08L40.38-6.08L40.38-6.08Q40.38-2.05 43.07-2.05L43.07-2.05L43.90-2.05L43.90-2.05Q47.36-2.05 50.21-7.33L50.21-7.33L50.21-7.33Q53.06-12.61 53.06-15.81L53.06-15.81L53.06-15.81Q53.06-18.37 52.22-19.78L52.22-19.78L52.22-19.78Q52.10-19.90 52.10-20.10ZM58.37 0.83L58.37 0.83L58.37 0.83Q57.66 0.83 57.09 0.64L57.09 0.64L57.09 0.64Q52.99-0.51 52.99-3.97L52.99-3.97L52.99-3.97Q52.99-8.45 58.62-14.34L58.62-14.34L58.62-14.34Q64.26-20.22 68.74-20.22L68.74-20.22L68.74-20.22Q70.21-20.22 71.14-19.42L71.14-19.42L71.14-19.42Q72.06-18.62 72.06-17.47L72.06-17.47L72.06-17.47Q72.06-13.89 66.66-10.62L66.66-10.62L66.66-10.62Q61.25-7.36 57.86-7.36L57.86-7.36L57.86-7.36Q57.34-7.36 56.96-7.49L56.96-7.49L56.96-7.49Q56-5.76 56-3.84L56-3.84L56-3.84Q56-0.51 59.17-0.51L59.17-0.51L59.17-0.51Q62.34-0.51 67.39-4.80L67.39-4.80L67.39-4.80Q71.30-7.94 74.05-11.46L74.05-11.46L74.05-11.46Q74.62-12.22 75.04-12.22L75.04-12.22L75.04-12.22Q75.46-12.22 75.46-11.84L75.46-11.84L75.46-11.84Q75.46-11.46 74.94-10.75L74.94-10.75L74.94-10.75Q71.49-6.21 66.62-2.69L66.62-2.69L66.62-2.69Q61.76 0.83 58.37 0.83ZM70.46-17.60L70.46-17.60L70.46-17.60Q70.46-18.37 68.83-18.37L68.83-18.37L68.83-18.37Q67.20-18.37 64.19-15.87L64.19-15.87L64.19-15.87Q60.16-12.54 57.92-8.90L57.92-8.90L57.92-8.90Q58.30-8.77 58.75-8.77L58.75-8.77L58.75-8.77Q61.18-8.77 65.25-11.36L65.25-11.36L65.25-11.36Q69.31-13.95 70.34-17.02L70.34-17.02L70.34-17.02Q70.46-17.34 70.46-17.60ZM85.38-2.30L83.33-0.96L83.33-0.96Q81.47 0.13 78.75 0.13L78.75 0.13L78.75 0.13Q76.03 0.13 74.59-1.66L74.59-1.66L74.59-1.66Q73.15-3.46 72.13-7.36L72.13-7.36L72.13-7.36Q70.98-6.21 70.53-6.21L70.53-6.21L70.53-6.21Q70.21-6.21 70.21-6.66L70.21-6.66L70.21-6.66Q70.21-7.10 70.53-7.42L70.53-7.42L70.53-7.42Q72.64-10.05 77.70-14.98L77.70-14.98L85.76-22.53L85.76-22.53Q89.22-25.79 89.86-25.79L89.86-25.79L89.86-25.79Q91.90-25.79 91.90-24.26L91.90-24.26L91.90-24.26Q91.90-23.49 91.30-22.75L91.30-22.75L91.30-22.75Q90.69-22.02 90.40-21.60L90.40-21.60L90.40-21.60Q90.11-21.18 89.79-20.80L89.79-20.80L89.79-20.80Q88.64-18.82 87.46-12.61L87.46-12.61L87.46-12.61Q86.27-6.40 85.63-3.97L85.63-3.97L85.63-3.97Q90.94-4.03 96.58-10.88L96.58-10.88L96.58-10.88Q97.22-11.52 97.54-11.52L97.54-11.52L97.54-11.52Q97.86-11.52 97.86-11.10L97.86-11.10L97.86-11.10Q97.86-10.69 97.28-9.98L97.28-9.98L97.28-9.98Q93.57-5.63 90.37-3.90L90.37-3.90L90.37-3.90Q88.45-2.94 85.38-2.30L85.38-2.30ZM74.69-8.06L74.69-8.06L74.69-8.06Q74.69-5.89 76.13-4.51L76.13-4.51L76.13-4.51Q77.57-3.14 79.36-3.14L79.36-3.14L79.36-3.14Q81.15-3.14 82.11-3.84L82.11-3.84L82.11-3.84Q83.39-4.54 84.64-9.73L84.64-9.73L84.64-9.73Q85.89-14.91 86.14-18.88L86.14-18.88L86.40-21.06L86.40-21.06Q82.88-18.43 78.88-14.27L78.88-14.27L78.88-14.27Q74.88-10.11 74.75-8.77L74.75-8.77L74.75-8.77Q74.69-8.38 74.69-8.06ZM111.23-13.57L111.23-13.57L111.23-13.57Q111.23-11.33 106.94-6.08L106.94-6.08L106.94-6.08Q101.89 0.13 98.30 0.13L98.30 0.13L97.28 0.13L97.28 0.13Q95.62 0.13 94.66-1.60L94.66-1.60L94.66-1.60Q93.89-2.82 93.89-4.29L93.89-4.29L93.89-4.29Q93.89-8.13 99.49-15.07L99.49-15.07L99.49-15.07Q105.09-22.02 108.54-22.02L108.54-22.02L108.54-22.02Q111.81-22.02 111.81-18.56L111.81-18.56L111.81-18.56Q111.81-17.66 111.49-16.26L111.49-16.26L111.49-16.26Q111.55-16.06 112.70-16.06L112.70-16.06L112.70-16.06Q113.86-16.06 116.22-17.28L116.22-17.28L116.22-17.28Q116.16-16.19 111.17-14.14L111.17-14.14L111.17-14.14Q111.23-13.89 111.23-13.57ZM107.07-16.90L107.07-16.90L107.07-16.90Q104.90-16.90 100.90-11.78L100.90-11.78L100.90-11.78Q96.90-6.66 96.90-4.22L96.90-4.22L96.90-4.22Q96.90-1.79 98.43-1.79L98.43-1.79L98.43-1.79Q101.18-1.79 105.41-6.78L105.41-6.78L105.41-6.78Q109.63-11.78 109.63-13.95L109.63-13.95L109.63-13.95Q108.61-14.53 107.07-16.90ZM143.10-0.77L143.10-0.77L143.10-0.77Q138.75-0.77 138.75-4.80L138.75-4.80L138.75-4.80Q138.75-7.10 140.80-11.10L140.80-11.10L140.80-11.10Q142.85-15.10 145.09-17.86L145.09-17.86L145.09-17.86Q141.12-15.94 135.94-10.91L135.94-10.91L135.94-10.91Q130.75-5.89 128.70-0.38L128.70-0.38L128.70-0.38Q128.38 0.13 127.62 0.13L127.62 0.13L127.62 0.13Q126.08 0.13 126.08-1.60L126.08-1.60L126.08-1.60Q126.72-5.12 128.96-9.66L128.96-9.66L128.96-9.66Q129.66-11.14 133.12-18.24L133.12-18.24L133.12-18.24Q128.13-14.98 124.64-11.23L124.64-11.23L124.64-11.23Q121.15-7.49 118.18-3.71L118.18-3.71L118.18-3.71Q115.20 0.06 114.82 0.06L114.82 0.06L114.82 0.06Q113.98 0.06 113.38-0.70L113.38-0.70L113.38-0.70Q112.77-1.47 112.77-2.24L112.77-2.24L112.77-2.24Q112.77-3.39 116.10-10.69L116.10-10.69L112.26-6.66L112.26-6.66Q110.85-5.25 110.50-5.25L110.50-5.25L110.50-5.25Q110.14-5.25 110.14-5.66L110.14-5.66L110.14-5.66Q110.14-6.08 110.66-6.59L110.66-6.59L110.66-6.59Q113.02-8.96 114.88-11.33L114.88-11.33L114.88-11.33Q116.74-13.70 121.02-19.78L121.02-19.78L121.02-19.78Q121.73-20.74 123.01-20.74L123.01-20.74L123.01-20.74Q124.29-20.74 124.29-19.52L124.29-19.52L124.29-19.52Q124.29-19.07 120.90-13.28L120.90-13.28L120.90-13.28Q117.50-7.49 117.12-6.02L117.12-6.02L117.12-6.02Q119.74-8.90 124.99-13.76L124.99-13.76L124.99-13.76Q132.86-21.06 135.36-21.06L135.36-21.06L135.36-21.06Q136.13-21.06 136.77-20.61L136.77-20.61L136.77-20.61Q137.41-20.16 137.41-19.62L137.41-19.62L137.41-19.62Q137.41-19.07 134.91-14.78L134.91-14.78L134.91-14.78Q132.48-10.37 132.22-9.54L132.22-9.54L132.22-9.54Q139.33-15.49 139.33-15.55L139.33-15.55L139.33-15.55Q145.34-20.22 147.97-20.22L147.97-20.22L147.97-20.22Q148.74-20.22 149.41-19.74L149.41-19.74L149.41-19.74Q150.08-19.26 150.08-18.62L150.08-18.62L150.08-18.62Q150.08-18.50 145.92-13.22L145.92-13.22L145.92-13.22Q141.76-7.94 141.25-4.54L141.25-4.54L141.25-4.54Q141.12-3.39 141.70-2.82L141.70-2.82L141.70-2.82Q142.27-2.24 143.78-2.24L143.78-2.24L143.78-2.24Q145.28-2.24 148.19-4.32L148.19-4.32L148.19-4.32Q151.10-6.40 154.11-9.92L154.11-9.92L154.11-9.92Q155.26-11.20 155.68-11.20L155.68-11.20L155.68-11.20Q156.10-11.20 156.10-10.88L156.10-10.88L156.10-10.88Q156.10-10.43 155.52-9.86L155.52-9.86L155.52-9.86Q152.38-6.08 148.77-3.42L148.77-3.42L148.77-3.42Q145.15-0.77 143.10-0.77ZM156.16 0.83L156.16 0.83L156.16 0.83Q155.46 0.83 154.88 0.64L154.88 0.64L154.88 0.64Q150.78-0.51 150.78-3.97L150.78-3.97L150.78-3.97Q150.78-8.45 156.42-14.34L156.42-14.34L156.42-14.34Q162.05-20.22 166.53-20.22L166.53-20.22L166.53-20.22Q168.00-20.22 168.93-19.42L168.93-19.42L168.93-19.42Q169.86-18.62 169.86-17.47L169.86-17.47L169.86-17.47Q169.86-13.89 164.45-10.62L164.45-10.62L164.45-10.62Q159.04-7.36 155.65-7.36L155.65-7.36L155.65-7.36Q155.14-7.36 154.75-7.49L154.75-7.49L154.75-7.49Q153.79-5.76 153.79-3.84L153.79-3.84L153.79-3.84Q153.79-0.51 156.96-0.51L156.96-0.51L156.96-0.51Q160.13-0.51 165.18-4.80L165.18-4.80L165.18-4.80Q169.09-7.94 171.84-11.46L171.84-11.46L171.84-11.46Q172.42-12.22 172.83-12.22L172.83-12.22L172.83-12.22Q173.25-12.22 173.25-11.84L173.25-11.84L173.25-11.84Q173.25-11.46 172.74-10.75L172.74-10.75L172.74-10.75Q169.28-6.21 164.42-2.69L164.42-2.69L164.42-2.69Q159.55 0.83 156.16 0.83ZM168.26-17.60L168.26-17.60L168.26-17.60Q168.26-18.37 166.62-18.37L166.62-18.37L166.62-18.37Q164.99-18.37 161.98-15.87L161.98-15.87L161.98-15.87Q157.95-12.54 155.71-8.90L155.71-8.90L155.71-8.90Q156.10-8.77 156.54-8.77L156.54-8.77L156.54-8.77Q158.98-8.77 163.04-11.36L163.04-11.36L163.04-11.36Q167.10-13.95 168.13-17.02L168.13-17.02L168.13-17.02Q168.26-17.34 168.26-17.60Z" fill="#eb6c6c"></path></g></g><style>text {
  font-size: 64px;
  font-family: Arial Black;
  dominant-baseline: central;
  text-anchor: middle;
}</style></svg>